# xmcd
#
# Track frame offsets:
# 150
# 17845
# 40703
# 58204
# 78864
# 98025
# 115888
# 143218
# 159235
#
# Disc length: 2356 seconds
#
#
# Revision: 0
# Processed by: cddbd v1.5.1PL0 Copyright (c) Steve Scherf et al.
# Submitted via: FreeRIP 2.70 
#
DISCID=69093209
DTITLE=Angels Espíritos - Harps Invasion
DYEAR=1900
DGENRE=
TTITLE0=The truth of the angels
TTITLE1=Born with a broken heart
TTITLE2=Returning to fly
TTITLE3=Morning star
TTITLE4=Cristal heart
TTITLE5=The nomad
TTITLE6=Caminhos estranhos
TTITLE7=Beyond trouble
TTITLE8=Spiritual warrior
EXTD=
EXTT0=
EXTT1=
EXTT2=
EXTT3=
EXTT4=
EXTT5=
EXTT6=
EXTT7=
EXTT8=
PLAYORDER=
